<?xml version="1.0" encoding="UTF-8" standalone="no"?>
<!-- Created with Inkscape (http://www.inkscape.org/) -->

<svg
   xmlns:dc="http://purl.org/dc/elements/1.1/"
   xmlns:cc="http://creativecommons.org/ns#"
   xmlns:rdf="http://www.w3.org/1999/02/22-rdf-syntax-ns#"
   xmlns:svg="http://www.w3.org/2000/svg"
   xmlns="http://www.w3.org/2000/svg"
   xmlns:sodipodi="http://sodipodi.sourceforge.net/DTD/sodipodi-0.dtd"
   xmlns:inkscape="http://www.inkscape.org/namespaces/inkscape"
   width="32"
   height="32"
   viewBox="0 0 8.4666666 8.4666669"
   version="1.1"
   id="svg8"
   inkscape:version="0.92.3 (2405546, 2018-03-11)"
   sodipodi:docname="cloud.svg">
  <defs
     id="defs2" />
  <sodipodi:namedview
     id="base"
     pagecolor="#ffffff"
     bordercolor="#666666"
     borderopacity="1.0"
     inkscape:pageopacity="0.0"
     inkscape:pageshadow="2"
     inkscape:zoom="11.2"
     inkscape:cx="5.3424489"
     inkscape:cy="10.105317"
     inkscape:document-units="mm"
     inkscape:current-layer="g1399"
     showgrid="false"
     inkscape:window-width="1920"
     inkscape:window-height="986"
     inkscape:window-x="-11"
     inkscape:window-y="-11"
     inkscape:window-maximized="1"
     units="px"
     inkscape:pagecheckerboard="true" />
  <metadata
     id="metadata5">
    <rdf:RDF>
      <cc:Work
         rdf:about="">
        <dc:format>image/svg+xml</dc:format>
        <dc:type
           rdf:resource="http://purl.org/dc/dcmitype/StillImage" />
        <dc:title />
      </cc:Work>
    </rdf:RDF>
  </metadata>
  <g
     inkscape:label="Layer 1"
     inkscape:groupmode="layer"
     id="layer1"
     transform="translate(0,-288.53332)">
    <g
       transform="matrix(0.15166892,0,0,0.15166892,-28.598816,40.29491)"
       id="g1399">
      <g
         id="g1492"
         transform="matrix(0.87343154,0,0,0.87343154,27.903847,211.18647)">
        <path
           id="path1460"
           d="m 208.84061,1679.5923 c -0.0151,-0.039 12.45652,-16.321 13.03641,-17.0191 2.2422,-2.6992 4.84568,-4.1983 7.90787,-4.5533 0.59741,-0.069 1.84169,-0.07 2.40502,-6e-4 2.17152,0.2659 4.01631,1.0422 5.68141,2.3906 0.42803,0.3466 1.22826,1.1523 1.56796,1.5786 1.32091,1.6577 2.07457,3.4627 2.34038,5.605 0.0589,0.4751 0.0501,2.0286 -0.0144,2.5101 -0.17817,1.3317 -0.51453,2.4241 -1.1067,3.5941 -1.74237,3.4425 -5.18123,5.6807 -9.06948,5.9029 -0.31407,0.018 -4.5951,0.029 -11.61543,0.03 -9.40581,10e-4 -11.12035,0 -11.13308,-0.038 z"
           style="opacity:0.9;fill:#ffffe6;fill-opacity:1;stroke-width:0.02852417"
           inkscape:connector-curvature="0" />
        <path
           id="path1409"
           d="m 198.40304,1679.5704 c -1.37798,-0.1288 -2.70648,-0.6011 -3.84909,-1.3682 -1.78554,-1.1988 -3.06473,-3.1037 -3.4804,-5.1829 -0.12907,-0.6457 -0.14385,-0.8162 -0.14385,-1.6606 0,-0.6422 0.0108,-0.8819 0.0513,-1.141 0.23855,-1.5246 0.81428,-2.8473 1.75053,-4.0219 0.27129,-0.3403 0.90945,-0.974 1.26449,-1.2556 0.70655,-0.5604 1.42619,-0.967 2.29293,-1.2957 0.37167,-0.1409 0.34737,-0.074 0.24737,-0.6862 -0.0814,-0.4988 -0.10856,-1.2925 -0.0606,-1.7714 0.31071,-3.1033 2.58446,-5.6512 5.62118,-6.299 1.84992,-0.3946 3.83941,-0.017 5.42737,1.0301 0.7332,0.4834 1.41985,1.1508 1.924,1.8699 0.0851,0.1214 0.16659,0.2281 0.18112,0.237 0.0504,0.031 0.0259,-0.1268 -0.0729,-0.47 -0.24236,-0.8421 -0.69666,-1.7228 -1.24734,-2.4182 -0.38573,-0.4872 -1.09262,-1.1497 -1.55197,-1.4547 -0.0844,-0.056 -0.15349,-0.1211 -0.15349,-0.1445 0,-0.083 0.54424,-0.8061 1.014,-1.3471 0.29423,-0.3388 1.02803,-1.0667 1.36777,-1.3568 1.53461,-1.3103 3.39402,-2.2802 5.3211,-2.7757 3.06368,-0.7878 6.3177,-0.4681 9.14065,0.8978 2.00493,0.9701 3.7509,2.4414 5.05223,4.2572 0.13103,0.1828 0.23841,0.347 0.23862,0.3648 4.3e-4,0.019 -0.0981,0.047 -0.23494,0.067 -0.94856,0.1383 -2.18109,0.4714 -3.11626,0.8422 -2.61495,1.0367 -4.99473,2.9349 -6.95559,5.548 -1.20913,1.6113 -12.57062,16.3418 -12.78967,16.5822 -1.04709,1.1488 -2.43539,2.0692 -3.84423,2.5484 -1.05714,0.3595 -2.29843,0.5078 -3.39437,0.4052 z"
           style="opacity:0.75;fill:#ffffe6;fill-opacity:1;stroke-width:0.02852417"
           inkscape:connector-curvature="0" />
      </g>
    </g>
  </g>
</svg>
